<svg width="759" height="101" viewBox="0 0 759 101" fill="none" xmlns="http://www.w3.org/2000/svg">
<circle cx="285.5" cy="47.5" r="43.5" stroke="white" stroke-width="8"/>
<path d="M291.512 54.4941L291.517 54.499L291.506 54.5049L291.5 54.5156L291.495 54.5107L261 72.0322L278.521 41.5361L278.517 41.5322L278.527 41.5254L278.533 41.5166L278.536 41.5195L309.033 24L291.512 54.4941ZM285.5 43C283.015 43 281 45.0147 281 47.5C281 49.9853 283.015 52 285.5 52C287.985 52 290 49.9853 290 47.5C290 45.0147 287.985 43 285.5 43Z" fill="white"/>
<path d="M0 91.9998V2.39977H26.88C32.3413 2.39977 37.2053 3.42376 41.472 5.47176C45.7387 7.43443 49.1093 10.5064 51.584 14.6878C54.144 18.8691 55.424 24.2451 55.424 30.8158C55.424 37.3011 54.144 42.7624 51.584 47.1998C49.1093 51.5518 45.7387 54.8371 41.472 57.0558C37.2053 59.2744 32.3413 60.3838 26.88 60.3838H6.784V91.9998H0ZM6.784 54.2398H26.88C30.8053 54.2398 34.3893 53.4291 37.632 51.8078C40.8747 50.1864 43.4773 47.7118 45.44 44.3838C47.488 40.9704 48.512 36.6611 48.512 31.4558C48.512 26.3358 47.488 22.0691 45.44 18.6558C43.4773 15.2424 40.8747 12.7251 37.632 11.1038C34.3893 9.3971 30.8053 8.54377 26.88 8.54377H6.784V54.2398Z" fill="white"/>
<path d="M113.458 63.7118C113.458 69.5998 112.562 74.4638 110.77 78.3038C108.978 82.1438 106.631 85.1731 103.73 87.3918C100.914 89.6104 97.7993 91.1464 94.386 91.9998C91.058 92.9384 87.7727 93.4078 84.53 93.4078C81.202 93.4078 77.7887 92.9384 74.29 91.9998C70.8767 91.1464 67.7193 89.6104 64.818 87.3918C61.9167 85.1731 59.57 82.1438 57.778 78.3038C55.986 74.4638 55.09 69.5998 55.09 63.7118V2.39977H61.874V63.8398C61.874 69.0451 62.898 73.3971 64.946 76.8958C66.994 80.3091 69.7247 82.9118 73.138 84.7038C76.5513 86.4104 80.3487 87.2638 84.53 87.2638C88.5407 87.2638 92.21 86.4104 95.538 84.7038C98.9513 82.9118 101.639 80.3091 103.602 76.8958C105.65 73.3971 106.674 69.0451 106.674 63.8398V2.39977H113.458V63.7118Z" fill="white"/>
<path d="M119.526 2.39977H126.054V91.9998H119.27L119.526 2.39977ZM148.198 2.39977C153.233 2.39977 157.67 3.42376 161.51 5.47176C165.435 7.43443 168.507 10.4211 170.726 14.4318C173.03 18.3571 174.182 23.2638 174.182 29.1518C174.182 34.7838 173.03 39.5624 170.726 43.4878C168.507 47.4131 165.521 50.3998 161.766 52.4478C158.011 54.4958 153.915 55.5198 149.478 55.5198H120.678V2.39977H148.198ZM124.774 49.3758H148.198C151.697 49.3758 154.854 48.6504 157.67 47.1998C160.571 45.6638 162.875 43.4451 164.582 40.5438C166.374 37.5571 167.27 33.8878 167.27 29.5358C167.27 24.7571 166.374 20.8318 164.582 17.7598C162.875 14.6024 160.571 12.2984 157.67 10.8478C154.854 9.31177 151.697 8.54377 148.198 8.54377H124.774V49.3758ZM145.766 51.5518L151.91 49.5038L174.054 90.4638V91.9998H167.398L145.766 51.5518Z" fill="white"/>
<path d="M178.03 91.9998V2.39977H204.91C210.371 2.39977 215.235 3.42376 219.502 5.47176C223.769 7.43443 227.139 10.5064 229.614 14.6878C232.174 18.8691 233.454 24.2451 233.454 30.8158C233.454 37.3011 232.174 42.7624 229.614 47.1998C227.139 51.5518 223.769 54.8371 219.502 57.0558C215.235 59.2744 210.371 60.3838 204.91 60.3838H184.814V91.9998H178.03ZM184.814 54.2398H204.91C208.835 54.2398 212.419 53.4291 215.662 51.8078C218.905 50.1864 221.507 47.7118 223.47 44.3838C225.518 40.9704 226.542 36.6611 226.542 31.4558C226.542 26.3358 225.518 22.0691 223.47 18.6558C221.507 15.2424 218.905 12.7251 215.662 11.1038C212.419 9.3971 208.835 8.54377 204.91 8.54377H184.814V54.2398Z" fill="white"/>
<path d="M385 72.4158C385 76.6824 383.933 80.3944 381.8 83.5518C379.752 86.7091 376.851 89.1838 373.096 90.9758C369.341 92.6824 364.904 93.5358 359.784 93.5358C355.603 93.5358 351.805 93.0238 348.392 91.9998C345.064 91.0611 342.205 89.9091 339.816 88.5438C337.427 87.1784 335.635 86.0264 334.44 85.0878V78.4318H335.72C338.28 80.6504 341.736 82.6984 346.088 84.5758C350.525 86.4531 355.091 87.3918 359.784 87.3918C363.027 87.3918 366.056 86.9224 368.872 85.9838C371.688 84.9598 373.949 83.3811 375.656 81.2478C377.448 79.1144 378.344 76.3838 378.344 73.0558C378.344 69.2158 377.405 66.0158 375.528 63.4558C373.651 60.8104 370.835 58.2931 367.08 55.9038L348.392 43.8718C346.088 42.3358 343.699 40.6291 341.224 38.7518C338.749 36.7891 336.659 34.3998 334.952 31.5838C333.331 28.7678 332.52 25.3971 332.52 21.4718C332.52 16.9491 333.587 13.1944 335.72 10.2078C337.853 7.13577 340.755 4.83177 344.424 3.29577C348.093 1.75977 352.189 0.991768 356.712 0.991768C361.149 0.991768 364.947 1.4611 368.104 2.39977C371.347 3.33843 373.992 4.44777 376.04 5.72777C378.173 7.00777 379.752 8.15977 380.776 9.18377V15.8398H379.496C377.619 13.5358 374.632 11.5304 370.536 9.82377C366.525 8.03177 361.747 7.13577 356.2 7.13577C351.251 7.13577 347.155 8.33043 343.912 10.7198C340.755 13.0238 339.176 16.3518 339.176 20.7038C339.176 24.6291 340.413 27.9998 342.888 30.8158C345.448 33.6318 348.264 36.0211 351.336 37.9838L368.232 48.7358C371.133 50.5278 373.864 52.5331 376.424 54.7518C378.984 56.8851 381.032 59.3598 382.568 62.1758C384.189 64.9918 385 68.4051 385 72.4158Z" fill="white"/>
<path d="M432.16 2.39977V8.54377H394.784V44.7678C397.771 43.4878 401.227 42.5064 405.152 41.8238C409.077 41.0558 413.131 40.6291 417.312 40.5438C421.493 40.3731 425.291 40.5864 428.704 41.1838V46.8158L427.808 47.5838C425.248 46.9011 421.963 46.6024 417.952 46.6878C413.941 46.6878 409.845 47.0718 405.664 47.8398C401.483 48.5224 397.856 49.6318 394.784 51.1678V85.8558H432.16V91.9998H388V2.39977H432.16Z" fill="white"/>
<path d="M440.984 44.6398C440.984 34.5704 442.733 26.3358 446.232 19.9358C449.731 13.4504 454.296 8.67177 459.928 5.59977C465.645 2.44244 471.832 0.86377 478.488 0.86377C485.229 0.86377 491.416 2.44244 497.048 5.59977C502.765 8.67177 507.331 13.4504 510.744 19.9358C514.243 26.3358 515.992 34.5704 515.992 44.6398C515.992 54.4531 514.243 62.6451 510.744 69.2158C507.245 75.7011 502.637 80.5651 496.92 83.8078C491.288 87.0504 485.144 88.6718 478.488 88.6718C471.832 88.6718 465.645 87.0504 459.928 83.8078C454.296 80.5651 449.731 75.7011 446.232 69.2158C442.733 62.6451 440.984 54.4531 440.984 44.6398ZM459.672 44.7678C459.672 50.9118 460.483 56.0744 462.104 60.2558C463.811 64.3518 466.115 67.4238 469.016 69.4718C471.917 71.5198 475.075 72.5438 478.488 72.5438C481.987 72.5438 485.187 71.5198 488.088 69.4718C490.989 67.4238 493.293 64.3518 495 60.2558C496.792 56.0744 497.688 50.8691 497.688 44.6398C497.688 38.4958 496.792 33.4611 495 29.5358C493.208 25.5251 490.861 22.5811 487.96 20.7038C485.144 18.8264 481.987 17.8878 478.488 17.8878C475.075 17.8878 471.917 18.8691 469.016 20.8318C466.115 22.7091 463.811 25.6531 462.104 29.6638C460.483 33.5891 459.672 38.6238 459.672 44.7678ZM504.984 88.7998V98.0158C502.595 99.3811 500.035 100.106 497.304 100.192C494.573 100.362 491.757 100.192 488.856 99.6798C485.955 99.1678 483.053 98.6558 480.152 98.1438C477.251 97.6318 474.392 97.4184 471.576 97.5038C468.845 97.6744 466.243 98.4424 463.768 99.8078L463 99.5518V90.3358C465.475 88.8851 468.077 88.1171 470.808 88.0318C473.539 87.9464 476.355 88.2024 479.256 88.7998C482.157 89.3118 485.059 89.8664 487.96 90.4638C490.861 90.9758 493.677 91.1891 496.408 91.1038C499.224 90.9331 501.827 90.0798 504.216 88.5438L504.984 88.7998ZM469.272 86.6238H480.92V89.8238H469.272V86.6238Z" fill="white"/>
<path d="M586.234 60.8958C586.234 66.9544 585.338 72.0744 583.546 76.2558C581.754 80.4371 579.322 83.8078 576.25 86.3678C573.263 88.8424 569.935 90.6344 566.266 91.7438C562.682 92.8531 559.098 93.4078 555.514 93.4078C551.93 93.4078 548.303 92.8531 544.634 91.7438C541.05 90.6344 537.722 88.8424 534.65 86.3678C531.663 83.8078 529.274 80.4371 527.482 76.2558C525.69 72.0744 524.794 66.9544 524.794 60.8958V2.39977H542.842V58.5918C542.842 61.9198 543.311 64.8638 544.25 67.4238C545.189 69.8984 546.597 71.8611 548.474 73.3118C550.351 74.6771 552.698 75.3598 555.514 75.3598C558.33 75.3598 560.677 74.6771 562.554 73.3118C564.431 71.8611 565.839 69.8984 566.778 67.4238C567.717 64.8638 568.186 61.9198 568.186 58.5918V2.39977H586.234V60.8958Z" fill="white"/>
<path d="M644.014 2.39977V18.7838H615.982V40.6718C618.627 39.6478 621.401 38.8371 624.302 38.2398C627.289 37.6424 630.233 37.2584 633.134 37.0878C636.035 36.9171 638.723 37.0024 641.198 37.3438V53.0878L640.046 53.8558C638.083 53.2584 635.779 52.9171 633.134 52.8318C630.574 52.7464 627.801 52.9171 624.814 53.3438C621.827 53.7704 618.883 54.4958 615.982 55.5198V75.6158H644.014V91.9998H598.062V2.39977H644.014Z" fill="white"/>
<path d="M704.512 68.3198C704.512 73.6104 703.36 78.1331 701.056 81.8878C698.837 85.6424 695.723 88.5438 691.712 90.5918C687.701 92.5544 683.093 93.5358 677.888 93.5358C673.792 93.5358 669.995 93.0238 666.496 91.9998C662.997 91.0611 659.968 89.9091 657.408 88.5438C654.933 87.1784 653.099 86.0264 651.904 85.0878V67.5518H654.208C656.939 70.0264 660.267 72.2451 664.192 74.2078C668.203 76.0851 672.043 77.0238 675.712 77.0238C677.675 77.0238 679.424 76.7251 680.96 76.1278C682.581 75.4451 683.861 74.5064 684.8 73.3118C685.739 72.1171 686.208 70.6664 686.208 68.9598C686.208 66.3998 685.44 64.3518 683.904 62.8158C682.453 61.1944 680.192 59.4878 677.12 57.6958L666.496 51.4238C663.851 49.8878 661.248 48.0958 658.688 46.0478C656.213 43.9144 654.123 41.2691 652.416 38.1118C650.795 34.8691 649.984 30.9438 649.984 26.3358C649.984 20.8744 651.136 16.2664 653.44 12.5118C655.829 8.67177 658.944 5.8131 662.784 3.93577C666.709 1.9731 671.104 0.991768 675.968 0.991768C679.723 0.991768 683.136 1.37577 686.208 2.14377C689.365 2.91177 692.139 3.93577 694.528 5.21577C697.003 6.41043 699.051 7.81843 700.672 9.43977V26.9758H698.24C695.68 24.1598 692.523 21.8984 688.768 20.1918C685.099 18.3998 681.344 17.5038 677.504 17.5038C674.944 17.5038 672.768 18.1438 670.976 19.4238C669.184 20.7038 668.288 22.5811 668.288 25.0558C668.288 27.5304 669.312 29.6638 671.36 31.4558C673.408 33.2478 676.096 35.1678 679.424 37.2158L690.048 43.7438C692.949 45.5358 695.467 47.5838 697.6 49.8878C699.733 52.1064 701.397 54.7091 702.592 57.6958C703.872 60.6824 704.512 64.2238 704.512 68.3198Z" fill="white"/>
<path d="M758.806 2.39977V18.9118H741.654V91.9998H723.734V18.9118H706.326V2.39977H758.806Z" fill="white"/>
<path d="M285 14V17" stroke="white" stroke-width="2" stroke-linecap="round"/>
<path d="M317 47H320" stroke="white" stroke-width="2" stroke-linecap="round"/>
<path d="M285 78.5V81.5" stroke="white" stroke-width="2" stroke-linecap="round"/>
<path d="M252 47H255" stroke="white" stroke-width="2" stroke-linecap="round"/>
</svg>
